<?xml version="1.0" standalone="no"?>
<!DOCTYPE svg PUBLIC "-//W3C//DTD SVG 20010904//EN"
 "http://www.w3.org/TR/2001/REC-SVG-20010904/DTD/svg10.dtd">
<svg version="1.0" xmlns="http://www.w3.org/2000/svg"
 width="512.000000pt" height="512.000000pt" viewBox="0 0 512.000000 512.000000"
 preserveAspectRatio="xMidYMid meet">

<g transform="translate(0.000000,512.000000) scale(0.100000,-0.100000)"
fill="#000000" stroke="none">
<path d="M2370 5114 c-426 -41 -768 -148 -1106 -346 -595 -347 -1031 -937
-1192 -1613 -51 -212 -66 -344 -66 -585 0 -286 23 -448 113 -781 68 -249 76
-307 76 -559 0 -307 -28 -454 -142 -744 -47 -119 -54 -146 -49 -183 15 -115
100 -193 208 -193 24 0 261 60 529 133 l485 133 104 -58 c437 -243 957 -353
1450 -307 900 83 1666 605 2069 1409 284 569 346 1207 175 1825 -270 977
-1086 1695 -2104 1850 -102 15 -457 28 -550 19z m530 -449 c685 -115 1272
-549 1569 -1160 96 -198 157 -389 198 -620 13 -77 17 -155 17 -340 0 -219 -3
-252 -28 -379 -161 -828 -777 -1478 -1588 -1676 -193 -47 -354 -63 -573 -57
-392 11 -715 107 -1063 318 -143 86 -140 87 -545 -25 -175 -48 -321 -85 -324
-82 -3 3 0 25 6 50 29 115 52 295 58 446 10 268 -18 480 -102 785 -63 228 -86
369 -92 571 -12 365 54 676 212 999 113 232 260 433 453 616 225 213 500 378
787 472 156 51 222 67 375 88 164 23 488 20 640 -6z"/>
<path d="M2475 3841 c-50 -22 -101 -79 -115 -128 -8 -26 -10 -249 -8 -728 l3
-690 32 -47 c46 -65 104 -92 188 -86 79 5 137 41 172 107 l23 44 0 693 c0 404
-4 703 -9 717 -16 40 -73 99 -116 118 -22 10 -60 19 -85 19 -25 0 -63 -9 -85
-19z"/>
<path d="M2515 1700 c-157 -37 -219 -232 -112 -349 28 -30 114 -71 151 -71 79
0 165 54 197 124 34 75 19 177 -34 234 -46 49 -138 78 -202 62z"/>
</g>
</svg>
