<?xml version="1.0" standalone="no"?>
<!DOCTYPE svg PUBLIC "-//W3C//DTD SVG 20010904//EN"
 "http://www.w3.org/TR/2001/REC-SVG-20010904/DTD/svg10.dtd">
<svg version="1.0" xmlns="http://www.w3.org/2000/svg"
 width="512.000000pt" height="512.000000pt" viewBox="0 0 512.000000 512.000000"
 preserveAspectRatio="xMidYMid meet">

<g transform="translate(0.000000,512.000000) scale(0.100000,-0.100000)"
fill="#000000" stroke="none">
<path d="M3619 5092 c-85 -44 -3121 -1891 -3148 -1915 -47 -43 -64 -122 -38
-179 7 -15 77 -97 157 -184 l145 -157 5 -1272 5 -1271 25 -37 c14 -21 43 -46
66 -57 40 -20 65 -20 1885 -20 l1845 0 44 22 c30 15 53 37 67 63 l23 40 0
1191 0 1191 -23 43 c-16 30 -37 51 -67 67 l-43 23 -1741 0 -1741 0 50 36 c28
19 217 135 420 256 555 332 2251 1376 2401 1479 48 33 74 81 74 137 0 43 -163
460 -200 512 -22 31 -85 60 -129 60 -15 0 -52 -12 -82 -28z m47 -352 c-23
-150 -47 -275 -52 -277 -5 -2 -137 -86 -294 -187 -157 -101 -287 -182 -289
-181 -2 2 19 127 45 278 l48 274 290 186 c160 102 291 185 293 184 1 -2 -17
-126 -41 -277z m-1046 -660 c-28 -146 -54 -266 -58 -268 -4 -1 -135 -83 -292
-182 -157 -98 -286 -175 -288 -170 -7 18 100 545 111 552 7 4 138 86 292 182
158 99 281 170 283 163 1 -7 -20 -131 -48 -277z m-1088 -669 l-48 -263 -288
-185 c-158 -101 -290 -182 -293 -179 -7 6 86 538 96 548 3 3 134 88 291 188
173 110 286 176 287 168 2 -7 -19 -132 -45 -277z m388 -1216 l-245 -245 -330
0 -330 0 245 245 245 245 330 0 330 0 -245 -245z m1165 0 l-250 -244 -330 0
-330 -1 245 245 245 245 335 0 335 0 -250 -245z m1149 0 l-237 -245 -336 0
-336 0 245 245 245 245 328 0 329 0 -238 -245z"/>
</g>
</svg>
