<?xml version="1.0" standalone="no"?>
<!DOCTYPE svg PUBLIC "-//W3C//DTD SVG 20010904//EN"
 "http://www.w3.org/TR/2001/REC-SVG-20010904/DTD/svg10.dtd">
<svg version="1.0" xmlns="http://www.w3.org/2000/svg"
 width="512.000000pt" height="512.000000pt" viewBox="0 0 512.000000 512.000000"
 preserveAspectRatio="xMidYMid meet">

<g transform="translate(0.000000,512.000000) scale(0.100000,-0.100000)"
fill="#000000" stroke="none">
<path d="M749 4769 c-278 -30 -500 -224 -570 -497 -18 -72 -19 -122 -19 -1222
0 -1109 1 -1149 20 -1224 31 -123 81 -209 179 -306 65 -64 105 -95 161 -122
82 -41 181 -68 248 -68 l42 0 0 -480 c0 -335 3 -480 11 -480 6 0 304 204 662
454 359 249 670 465 691 480 l39 26 1092 0 1093 0 78 23 c224 65 396 240 461
467 17 61 18 130 18 1230 0 1100 -1 1169 -18 1230 -52 182 -180 342 -337 418
-170 84 14 76 -1990 78 -982 1 -1819 -2 -1861 -7z m3676 -300 c104 -39 183
-117 227 -226 l23 -58 0 -1135 0 -1135 -23 -58 c-44 -109 -123 -187 -227 -226
-55 -21 -65 -21 -1180 -21 l-1125 0 -507 -353 -508 -354 -5 351 -5 351 -185 5
c-121 4 -197 11 -220 20 -95 37 -169 106 -214 200 l-31 65 0 1155 0 1155 27
57 c36 78 73 122 136 164 99 66 -37 62 1949 63 l1812 1 56 -21z"/>
<path d="M1440 3640 l0 -140 1115 0 1115 0 0 140 0 140 -1115 0 -1115 0 0
-140z"/>
<path d="M1440 3040 l0 -140 1115 0 1115 0 0 140 0 140 -1115 0 -1115 0 0
-140z"/>
<path d="M1440 2440 l0 -140 1115 0 1115 0 0 140 0 140 -1115 0 -1115 0 0
-140z"/>
</g>
</svg>
