<?xml version="1.0" standalone="no"?>
<!DOCTYPE svg PUBLIC "-//W3C//DTD SVG 20010904//EN"
 "http://www.w3.org/TR/2001/REC-SVG-20010904/DTD/svg10.dtd">
<svg version="1.0" xmlns="http://www.w3.org/2000/svg"
 width="512.000000pt" height="512.000000pt" viewBox="0 0 512.000000 512.000000"
 preserveAspectRatio="xMidYMid meet">

<g transform="translate(0.000000,512.000000) scale(0.100000,-0.100000)"
fill="#000000" stroke="none">
<path d="M705 4471 c-11 -5 -29 -19 -40 -31 -19 -21 -20 -38 -23 -481 -3 -513
-4 -507 65 -535 41 -18 89 -6 119 27 18 20 19 48 24 418 l5 396 396 5 c370 5
398 6 418 24 33 30 45 78 27 119 -28 68 -24 67 -523 66 -246 0 -457 -4 -468
-8z"/>
<path d="M3270 4473 c-81 -30 -90 -157 -14 -192 17 -7 147 -11 409 -11 l385 0
0 -381 c0 -424 1 -433 65 -463 41 -20 49 -20 90 0 65 30 65 33 65 518 0 480
-1 491 -59 520 -26 14 -90 16 -478 15 -246 0 -455 -3 -463 -6z"/>
<path d="M705 1911 c-11 -5 -29 -19 -40 -31 -19 -21 -20 -38 -23 -481 -2 -404
-1 -463 13 -490 30 -58 41 -59 521 -59 486 0 488 0 519 66 29 62 -8 134 -76
148 -18 3 -197 6 -400 6 l-369 0 0 385 c0 255 -4 392 -11 408 -21 45 -84 68
-134 48z"/>
<path d="M4104 1901 c-17 -11 -36 -34 -43 -52 -7 -21 -11 -154 -11 -405 l0
-374 -375 0 c-413 0 -430 -2 -459 -59 -9 -16 -16 -39 -16 -51 0 -12 7 -35 16
-51 29 -58 40 -59 520 -59 376 0 441 2 469 16 65 30 65 33 65 518 0 480 -1
491 -59 520 -40 21 -69 20 -107 -3z"/>
</g>
</svg>
