<?xml version="1.0" standalone="no"?>
<!DOCTYPE svg PUBLIC "-//W3C//DTD SVG 20010904//EN"
 "http://www.w3.org/TR/2001/REC-SVG-20010904/DTD/svg10.dtd">
<svg version="1.0" xmlns="http://www.w3.org/2000/svg"
 width="512.000000pt" height="512.000000pt" viewBox="0 0 512.000000 512.000000"
 preserveAspectRatio="xMidYMid meet">

<g transform="translate(0.000000,512.000000) scale(0.100000,-0.100000)"
fill="#000000" stroke="none">
<path d="M2380 5114 c-19 -2 -78 -9 -130 -14 -330 -36 -695 -160 -990 -336
-375 -224 -680 -529 -904 -904 -175 -292 -291 -632 -338 -990 -16 -123 -16
-497 0 -620 82 -623 356 -1150 820 -1581 256 -239 575 -425 922 -539 274 -91
491 -124 800 -124 228 0 329 9 530 50 689 141 1304 583 1674 1204 175 292 291
632 338 990 16 123 16 497 0 620 -47 358 -163 698 -338 990 -224 375 -529 680
-904 904 -289 173 -634 291 -980 336 -88 12 -438 21 -500 14z m100 -714 l0
-560 -57 0 c-206 0 -811 75 -840 104 -9 9 62 184 129 319 126 250 293 460 459
574 88 61 230 121 287 122 l22 1 0 -560z m295 528 c191 -69 379 -243 542 -503
38 -60 81 -116 94 -124 38 -21 76 -7 96 34 l16 34 -52 91 c-72 128 -178 267
-272 361 -44 43 -76 79 -70 79 23 0 168 -44 269 -81 325 -121 630 -318 870
-562 l74 -74 -74 -28 c-189 -71 -522 -175 -561 -175 -8 0 -24 24 -36 57 -12
32 -29 66 -38 75 -36 40 -123 5 -123 -49 0 -12 8 -45 19 -72 l19 -50 -52 -10
c-253 -50 -609 -91 -798 -91 l-58 0 0 561 0 561 38 -6 c20 -4 64 -16 97 -28z
m-809 -60 c-159 -131 -380 -477 -496 -778 -28 -71 -48 -110 -58 -110 -38 0
-369 103 -545 170 l-88 34 83 83 c276 279 660 505 1033 609 107 30 117 29 71
-8z m-1179 -847 c128 -51 345 -123 469 -156 54 -14 104 -28 111 -30 9 -3 7
-23 -8 -77 -11 -40 -33 -127 -48 -193 l-27 -120 -234 -5 c-230 -5 -236 -6
-295 -33 -100 -47 -162 -122 -184 -225 -6 -31 -11 -155 -11 -297 l0 -245 -205
0 -205 0 6 78 c27 388 147 768 342 1086 64 105 173 256 184 256 4 0 52 -17
105 -39z m3720 -43 c265 -362 425 -800 457 -1260 l6 -78 -205 0 -205 0 0 245
c0 142 -5 266 -11 297 -22 103 -84 178 -184 225 -59 27 -62 28 -297 31 l-236
4 -7 44 c-3 24 -23 112 -44 194 l-39 150 57 16 c215 59 462 142 591 198 19 8
40 15 45 16 6 0 38 -37 72 -82z m-2582 -248 c88 -11 249 -26 358 -32 l197 -12
0 -123 0 -123 -520 0 c-421 0 -520 2 -520 13 0 16 78 326 85 337 2 4 57 -3
122 -16 65 -13 190 -32 278 -44z m1675 57 c0 -2 18 -74 40 -162 22 -88 40
-165 40 -172 0 -10 -101 -13 -520 -13 l-520 0 0 123 0 123 205 12 c217 13 440
40 596 71 86 17 159 25 159 18z m674 -507 c54 -12 87 -38 113 -90 l23 -44 0
-586 0 -586 -22 -44 c-27 -52 -60 -78 -114 -90 -52 -13 -3376 -13 -3428 0 -54
12 -87 38 -113 90 l-23 44 0 586 0 586 23 44 c25 50 59 78 108 90 48 11 3385
12 3433 0z m-3714 -1045 c0 -142 5 -266 11 -297 22 -103 84 -178 184 -225 59
-27 62 -28 297 -31 l236 -4 7 -44 c3 -24 23 -112 44 -194 l39 -150 -57 -16
c-211 -59 -378 -114 -534 -175 -53 -22 -101 -39 -105 -39 -12 0 -123 155 -186
258 -196 324 -313 697 -340 1085 l-6 77 205 0 205 0 0 -245z m4404 168 c-27
-388 -144 -761 -340 -1085 -63 -103 -174 -258 -186 -258 -4 0 -52 17 -105 39
-156 61 -322 116 -535 175 l-57 16 20 73 c12 39 33 126 48 192 l27 120 234 5
c230 5 236 6 295 33 100 47 162 122 184 225 6 31 11 155 11 297 l0 245 205 0
205 0 -6 -77z m-2484 -846 l0 -123 -202 -12 c-228 -14 -447 -40 -627 -75 -67
-13 -124 -20 -127 -16 -7 11 -84 320 -84 336 0 10 101 13 520 13 l520 0 0
-123z m1200 110 c0 -16 -78 -326 -85 -337 -2 -4 -57 3 -122 16 -185 36 -405
63 -628 76 l-205 12 0 123 0 123 520 0 c421 0 520 -2 520 -13z m-1200 -948 l0
-561 -37 6 c-220 38 -450 228 -639 529 -79 126 -105 147 -152 128 -33 -14 -56
-59 -45 -89 33 -86 208 -327 314 -433 44 -43 76 -79 70 -79 -23 0 -168 44
-269 81 -325 121 -630 318 -870 561 l-73 74 88 34 c181 69 506 170 546 170 8
0 24 -27 38 -62 29 -73 61 -98 106 -83 15 6 34 23 43 38 14 25 13 32 -6 87
l-21 59 51 10 c259 52 556 86 774 90 l82 1 0 -561z m415 551 c230 -17 622 -74
642 -94 9 -9 -61 -181 -129 -319 -181 -361 -424 -606 -677 -681 -101 -30 -91
-92 -91 544 l0 560 58 0 c31 0 120 -5 197 -10z m948 -165 c135 -38 277 -85
410 -135 l88 -34 -83 -83 c-234 -236 -546 -437 -863 -553 -113 -42 -264 -84
-272 -77 -2 3 10 15 27 27 51 36 177 187 259 310 84 126 188 330 246 483 24
61 43 97 52 97 8 0 69 -16 136 -35z"/>
<path d="M1073 2945 c-16 -7 -33 -20 -37 -30 -3 -9 -6 -172 -6 -361 0 -331 1
-345 20 -364 27 -27 81 -26 106 1 17 19 19 41 22 241 l3 220 175 -234 c108
-145 185 -237 201 -244 34 -15 59 -8 83 24 19 23 20 41 20 362 0 321 -1 339
-20 362 -25 33 -49 39 -89 22 -17 -7 -32 -14 -33 -16 -1 -2 -5 -105 -8 -231
l-5 -228 -167 224 c-92 123 -176 230 -185 239 -28 24 -47 27 -80 13z"/>
<path d="M1854 2946 c-17 -8 -34 -21 -38 -31 -10 -27 -7 -694 4 -715 5 -10 24
-23 41 -29 42 -14 485 -15 526 -1 28 10 53 45 53 74 0 7 -9 25 -21 40 l-20 26
-220 0 -219 0 0 84 0 84 186 4 186 3 24 28 c30 35 30 59 0 94 l-24 28 -186 3
-186 4 0 84 0 84 219 0 220 0 20 26 c12 15 21 33 21 40 0 29 -25 64 -53 74
-47 16 -494 13 -533 -4z"/>
<path d="M2952 2944 c-34 -14 -31 -5 -104 -267 -22 -81 -43 -145 -46 -143 -2
3 -28 89 -58 192 -29 103 -61 195 -70 205 -38 42 -124 10 -124 -46 0 -25 176
-658 191 -686 12 -23 59 -38 86 -28 35 13 48 43 98 224 26 94 50 176 54 184 5
8 29 -64 61 -175 28 -104 56 -196 61 -205 12 -23 59 -38 86 -28 12 4 28 18 37
31 13 21 196 657 196 683 0 7 -9 24 -21 39 -25 31 -79 36 -106 8 -10 -9 -42
-102 -72 -210 -29 -106 -56 -191 -58 -188 -3 3 -29 89 -58 191 -63 224 -81
250 -153 219z"/>
<path d="M3764 2949 c-192 -23 -298 -161 -229 -299 35 -69 105 -111 265 -160
168 -51 219 -90 172 -133 -29 -26 -73 -38 -143 -38 -94 0 -152 26 -169 75 -25
76 -117 77 -144 2 -18 -51 42 -149 113 -186 125 -63 313 -55 424 18 108 71
116 222 16 306 -45 38 -69 49 -199 91 -134 44 -185 68 -199 94 -23 43 54 83
161 82 85 0 136 -22 159 -68 26 -52 39 -63 75 -63 72 0 96 75 50 155 -55 93
-195 142 -352 124z"/>
</g>
</svg>
