<?xml version="1.0" standalone="no"?>
<!DOCTYPE svg PUBLIC "-//W3C//DTD SVG 20010904//EN"
 "http://www.w3.org/TR/2001/REC-SVG-20010904/DTD/svg10.dtd">
<svg version="1.0" xmlns="http://www.w3.org/2000/svg"
 width="512.000000pt" height="512.000000pt" viewBox="0 0 512.000000 512.000000"
 preserveAspectRatio="xMidYMid meet">

<g transform="translate(0.000000,512.000000) scale(0.100000,-0.100000)"
fill="#000000" stroke="none">
<path d="M94 4831 c-61 -28 -89 -73 -89 -143 0 -63 19 -97 75 -135 l33 -23
2447 0 2447 0 33 23 c50 33 72 70 77 124 5 65 -26 120 -87 151 l-44 22 -2426
0 c-2343 0 -2426 -1 -2466 -19z"/>
<path d="M80 3468 c-50 -34 -72 -71 -77 -125 -5 -65 26 -120 87 -150 l44 -23
2426 0 2426 0 44 23 c61 30 92 85 87 150 -5 54 -27 91 -77 125 l-33 22 -2447
0 -2447 0 -33 -22z"/>
<path d="M3464 2319 c-47 -13 -101 -79 -109 -131 -3 -24 -5 -439 -3 -923 l3
-880 22 -35 c30 -49 77 -74 138 -74 48 0 78 17 790 443 407 244 754 458 772
476 56 59 56 149 0 208 -30 32 -1440 883 -1513 913 -37 16 -55 16 -100 3z
m697 -726 c263 -159 479 -290 479 -293 0 -6 -955 -580 -964 -580 -3 0 -6 261
-6 580 0 319 3 580 6 580 3 0 221 -129 485 -287z"/>
<path d="M107 2126 c-49 -18 -64 -32 -89 -80 -37 -73 -13 -153 62 -203 l33
-23 1291 0 c1262 0 1292 1 1323 20 60 36 90 108 72 172 -13 52 -63 105 -107
118 -24 6 -469 10 -1292 10 -1024 -1 -1262 -3 -1293 -14z"/>
<path d="M80 758 c-56 -39 -75 -73 -75 -136 0 -70 28 -115 89 -143 39 -18 94
-19 1309 -19 1383 0 1303 -3 1360 58 71 75 47 201 -47 246 -31 14 -153 16
-1319 16 l-1284 0 -33 -22z"/>
</g>
</svg>
