<?xml version="1.0" standalone="no"?>
<!DOCTYPE svg PUBLIC "-//W3C//DTD SVG 20010904//EN"
 "http://www.w3.org/TR/2001/REC-SVG-20010904/DTD/svg10.dtd">
<svg version="1.0" xmlns="http://www.w3.org/2000/svg"
 width="512.000000pt" height="512.000000pt" viewBox="0 0 512.000000 512.000000"
 preserveAspectRatio="xMidYMid meet">

<g transform="translate(0.000000,512.000000) scale(0.100000,-0.100000)"
fill="#000000" stroke="none">
<path d="M3894 4895 c-61 -23 -94 -61 -209 -245 l-105 -168 -173 -42 c-94 -24
-195 -52 -224 -62 -90 -33 -153 -125 -153 -223 0 -77 20 -113 162 -283 l139
-166 -6 -50 c-18 -168 -25 -367 -15 -405 27 -102 127 -176 235 -175 51 0 88
12 251 78 l191 78 189 -78 c168 -69 196 -78 254 -78 104 0 177 49 221 148 21
49 21 51 8 260 -8 116 -14 214 -14 218 0 4 60 79 133 167 73 88 139 176 147
195 19 46 19 137 -1 184 -19 46 -68 98 -114 121 -19 10 -121 39 -226 65 l-191
48 -114 181 c-98 157 -120 185 -161 211 -58 35 -159 45 -224 21z m202 -481
c53 -85 109 -163 124 -174 15 -11 101 -38 191 -60 90 -22 174 -43 186 -46 20
-6 12 -19 -95 -145 -64 -77 -125 -154 -135 -173 -17 -31 -17 -45 -4 -227 8
-107 13 -196 11 -198 -1 -2 -83 29 -182 68 -99 39 -191 71 -205 71 -15 0 -106
-32 -203 -70 -97 -39 -179 -68 -182 -66 -3 3 1 93 8 199 11 171 11 197 -3 223
-8 16 -68 91 -132 167 -64 76 -115 141 -112 143 3 3 89 27 191 53 139 35 192
53 210 70 14 14 69 93 122 178 52 84 99 151 104 148 5 -3 53 -75 106 -161z"/>
<path d="M748 4130 c-219 -37 -405 -179 -504 -384 -67 -139 -65 -96 -62 -1276
l3 -1065 27 -73 c39 -109 84 -178 168 -262 85 -85 155 -129 262 -168 73 -27
73 -27 405 -30 l333 -3 -7 -188 c-7 -213 1 -259 61 -342 63 -85 160 -134 271
-133 112 0 133 12 581 349 l419 315 501 0 c462 0 507 1 576 19 73 19 161 58
222 100 86 58 191 186 235 285 56 127 54 110 58 809 l4 648 -22 46 c-39 81
-136 105 -210 52 -60 -42 -59 -30 -59 -706 0 -484 -3 -629 -14 -668 -43 -162
-166 -271 -331 -295 -39 -5 -289 -10 -563 -10 -355 0 -499 -3 -515 -12 -12 -6
-212 -155 -444 -330 -233 -175 -428 -318 -434 -318 -5 0 -20 5 -31 11 -20 11
-21 15 -13 274 6 240 5 267 -11 300 -35 75 -35 75 -429 75 -192 0 -381 5 -418
10 -172 25 -309 159 -337 331 -13 81 -13 1928 0 2018 19 132 103 245 228 304
l67 32 960 5 960 5 31 22 c30 22 64 85 64 120 0 9 -9 36 -21 59 -15 31 -32 48
-63 63 -42 21 -52 21 -972 20 -511 -1 -950 -5 -976 -9z"/>
<path d="M1410 2992 c-47 -25 -85 -98 -76 -147 8 -43 50 -94 93 -111 26 -12
181 -14 845 -14 754 0 816 1 848 18 103 52 108 201 8 253 -36 18 -71 19 -860
19 -776 0 -825 -1 -858 -18z"/>
<path d="M1403 2261 c-91 -56 -93 -179 -4 -238 l34 -23 468 0 467 0 32 26 c78
66 80 154 5 224 l-27 25 -471 3 c-454 2 -473 2 -504 -17z"/>
</g>
</svg>
