<?xml version="1.0" standalone="no"?>
<!DOCTYPE svg PUBLIC "-//W3C//DTD SVG 20010904//EN"
 "http://www.w3.org/TR/2001/REC-SVG-20010904/DTD/svg10.dtd">
<svg version="1.0" xmlns="http://www.w3.org/2000/svg"
 width="512.000000pt" height="512.000000pt" viewBox="0 0 512.000000 512.000000"
 preserveAspectRatio="xMidYMid meet">

<g transform="translate(0.000000,512.000000) scale(0.100000,-0.100000)"
fill="#000000" stroke="none">
<path d="M2975 4699 c-330 -50 -590 -285 -667 -601 l-21 -87 -451 -3 -451 -3
-57 -27 c-74 -34 -146 -107 -184 -183 l-29 -60 -3 -317 -3 -317 -46 35 c-189
144 -463 164 -672 47 -80 -44 -196 -158 -238 -233 -138 -244 -96 -548 102
-745 113 -114 280 -185 435 -185 120 0 266 49 372 125 l48 35 0 -295 c0 -273
2 -300 21 -357 36 -108 97 -175 207 -226 l57 -27 508 -3 507 -3 0 -149 0 -149
-227 -3 c-227 -3 -228 -3 -290 -32 -69 -32 -133 -93 -158 -152 -11 -27 -15
-73 -15 -179 0 -126 2 -146 19 -166 l19 -24 1299 -3 c714 -1 1308 0 1321 3 12
3 31 14 42 25 18 18 20 34 20 163 0 129 -2 147 -24 192 -30 64 -76 107 -151
142 -59 28 -62 28 -287 31 l-228 3 0 149 0 149 508 3 507 3 65 31 c83 39 145
101 184 184 l31 65 3 1065 c2 1044 2 1066 -18 1130 -25 82 -75 150 -144 196
-96 63 -102 64 -581 64 l-432 0 -21 87 c-85 343 -378 586 -734 607 -46 3 -110
1 -143 -5z m280 -180 c210 -61 387 -243 440 -454 10 -40 15 -109 15 -217 l0
-158 -80 0 -80 0 0 124 c0 151 -11 211 -54 301 -63 134 -193 231 -344 257
-241 41 -487 -133 -531 -376 -6 -33 -11 -115 -11 -183 l0 -124 -82 3 -83 3 1
150 c2 173 16 242 71 355 27 56 57 95 117 155 174 173 391 230 621 164z m-38
-335 c59 -28 111 -83 144 -153 20 -40 23 -66 27 -193 l4 -148 -312 0 -312 0 4
148 c3 121 7 155 24 193 75 163 262 231 421 153z m-937 -413 l0 -78 -76 -5
c-63 -4 -82 -10 -117 -34 -23 -17 -53 -50 -67 -74 -25 -45 -25 -48 -28 -322
l-3 -278 -360 0 -359 0 0 343 c0 208 4 357 11 380 13 49 63 105 114 128 37 17
75 19 463 19 l422 0 0 -79z m2486 60 c48 -22 101 -82 114 -131 15 -53 13
-2077 -1 -2121 -18 -51 -55 -97 -102 -122 l-42 -22 -1635 -3 c-1267 -2 -1645
0 -1680 10 -56 15 -121 78 -138 134 -8 29 -12 143 -12 388 l0 346 217 0 217 0
52 55 51 55 51 -56 c49 -53 54 -56 92 -52 l40 4 0 -119 c0 -140 11 -192 53
-242 65 -79 -2 -75 1035 -75 810 0 927 2 960 15 47 20 78 50 105 100 22 40 22
45 25 745 2 388 0 729 -3 757 -8 67 -55 139 -110 167 -25 13 -66 22 -107 24
l-68 4 0 79 0 79 423 0 c389 0 425 -2 463 -19z m-772 -323 c14 -20 16 -105 16
-723 0 -618 -2 -703 -16 -723 l-15 -22 -899 0 -899 0 -15 22 c-13 18 -16 51
-16 151 l0 128 22 -15 c16 -11 46 -16 104 -16 l82 0 152 142 c84 78 156 153
161 166 7 17 5 33 -7 55 -16 32 -250 256 -302 289 -21 14 -49 18 -119 18 l-93
0 0 253 c0 212 2 256 16 275 l15 22 899 0 899 0 15 -22z m-3143 -437 c85 -32
148 -81 215 -168 l60 -78 580 -3 579 -2 95 -90 95 -90 -90 -85 c-49 -46 -98
-85 -107 -85 -9 0 -50 34 -90 75 -94 95 -109 97 -186 20 l-55 -55 -58 55 c-80
77 -95 75 -185 -20 l-71 -75 -230 0 c-142 0 -242 -4 -262 -11 -20 -7 -40 -26
-57 -55 -32 -55 -129 -145 -186 -172 -55 -27 -152 -52 -199 -52 -281 0 -507
261 -461 532 31 180 160 324 333 373 74 20 206 14 280 -14z m2739 -1951 l0
-150 -510 0 -510 0 0 150 0 150 510 0 510 0 0 -150z m592 -320 c20 -6 50 -23
67 -39 30 -28 31 -32 31 -110 l0 -81 -1200 0 -1200 0 0 79 c0 68 3 84 23 106
48 56 12 54 1172 55 698 0 1083 -4 1107 -10z"/>
<path d="M2985 3347 c-96 -32 -168 -96 -210 -189 -53 -116 -26 -275 61 -359
l34 -33 0 -201 c0 -190 1 -204 23 -244 12 -24 42 -57 66 -75 39 -28 50 -31
119 -31 67 0 82 3 117 27 22 15 51 44 65 65 24 36 25 41 28 247 l3 210 34 37
c66 73 80 113 80 224 0 89 -3 106 -27 150 -32 62 -104 130 -166 158 -58 25
-171 32 -227 14z m176 -170 c57 -30 89 -84 89 -152 0 -58 -20 -97 -77 -149
l-38 -34 -3 -223 c-2 -139 -7 -228 -14 -236 -6 -7 -23 -13 -38 -13 -15 0 -32
6 -38 13 -7 8 -12 97 -14 235 l-3 223 -43 40 c-60 58 -75 91 -70 159 5 69 35
115 92 141 55 25 104 24 157 -4z"/>
<path d="M452 2855 c-107 -55 -155 -170 -120 -289 16 -55 99 -138 154 -154 94
-28 169 -8 240 63 59 59 80 117 71 197 -20 162 -198 257 -345 183z m163 -160
c42 -41 30 -102 -25 -125 -35 -15 -84 0 -100 31 -28 52 12 119 70 119 19 0 40
-9 55 -25z"/>
</g>
</svg>
