<?xml version="1.0" standalone="no"?>
<!DOCTYPE svg PUBLIC "-//W3C//DTD SVG 20010904//EN"
 "http://www.w3.org/TR/2001/REC-SVG-20010904/DTD/svg10.dtd">
<svg version="1.0" xmlns="http://www.w3.org/2000/svg"
 width="512.000000pt" height="512.000000pt" viewBox="0 0 512.000000 512.000000"
 preserveAspectRatio="xMidYMid meet">

<g transform="translate(0.000000,512.000000) scale(0.100000,-0.100000)"
fill="#000000" stroke="none">
<path d="M926 5109 c-149 -22 -328 -92 -455 -179 -83 -55 -190 -158 -252 -239
-69 -91 -153 -266 -186 -386 l-28 -100 0 -1645 0 -1645 27 -98 c31 -112 97
-257 158 -346 55 -83 158 -190 239 -252 91 -69 266 -153 386 -186 l100 -28
1645 0 1645 0 100 28 c120 33 295 117 386 186 81 62 184 169 239 252 61 89
127 234 158 346 l27 98 0 1645 0 1645 -28 100 c-33 120 -117 295 -186 386
-143 188 -358 331 -596 397 l-100 27 -1610 1 c-885 1 -1637 -2 -1669 -7z m724
-859 l0 -710 -745 0 -745 0 0 293 c0 325 9 399 69 552 84 218 289 422 510 508
150 58 212 66 579 66 l332 1 0 -710z m1660 0 l0 -710 -750 0 -750 0 0 710 0
710 750 0 750 0 0 -710z m890 694 c388 -73 678 -366 745 -751 11 -62 15 -163
15 -369 l0 -284 -745 0 -745 0 0 710 0 710 324 0 c251 0 342 -3 406 -16z m760
-2748 c0 -1004 -2 -1196 -15 -1269 -67 -385 -367 -685 -752 -752 -129 -22
-3137 -22 -3266 0 -253 44 -474 189 -615 404 -66 100 -108 203 -133 326 -18
85 -19 158 -19 1283 l0 1192 2400 0 2400 0 0 -1184z"/>
<path d="M2049 2801 l-29 -30 2 -1011 3 -1012 24 -19 c49 -40 62 -33 434 220
194 131 525 356 737 500 211 144 390 272 397 284 19 34 16 54 -14 86 -47 50
-1473 1011 -1500 1011 -14 0 -38 -13 -54 -29z m753 -622 c328 -222 596 -407
595 -411 -1 -5 -1040 -714 -1194 -816 l-23 -14 0 827 c0 657 3 826 13 823 6
-3 281 -187 609 -409z"/>
</g>
</svg>
