<?xml version="1.0" standalone="no"?>
<!DOCTYPE svg PUBLIC "-//W3C//DTD SVG 20010904//EN"
 "http://www.w3.org/TR/2001/REC-SVG-20010904/DTD/svg10.dtd">
<svg version="1.0" xmlns="http://www.w3.org/2000/svg"
 width="512.000000pt" height="512.000000pt" viewBox="0 0 512.000000 512.000000"
 preserveAspectRatio="xMidYMid meet">

<g transform="translate(0.000000,512.000000) scale(0.100000,-0.100000)"
fill="#000000" stroke="none">
<path d="M247 4469 c-91 -21 -178 -95 -219 -184 -35 -76 -33 -191 5 -267 30
-62 83 -115 149 -150 l43 -23 2335 0 2335 0 54 30 c61 34 110 86 142 154 35
71 33 187 -4 262 -32 66 -99 132 -165 162 l-47 22 -2295 2 c-1317 0 -2311 -3
-2333 -8z"/>
<path d="M224 2866 c-138 -44 -233 -185 -222 -329 10 -115 79 -216 183 -268
l50 -24 1515 0 1515 0 52 27 c116 62 178 162 178 288 0 60 -5 86 -27 132 -31
66 -90 127 -156 159 l-47 24 -1500 2 c-1202 1 -1508 -1 -1541 -11z"/>
<path d="M185 1252 c-68 -33 -127 -92 -158 -161 -31 -67 -30 -187 2 -258 27
-62 102 -135 169 -166 47 -22 49 -22 732 -22 637 0 689 1 737 18 70 24 145 93
180 165 24 48 28 69 28 137 -1 132 -60 226 -177 285 l-61 30 -696 0 -696 0
-60 -28z"/>
</g>
</svg>
