<?xml version="1.0" standalone="no"?>
<!DOCTYPE svg PUBLIC "-//W3C//DTD SVG 20010904//EN"
 "http://www.w3.org/TR/2001/REC-SVG-20010904/DTD/svg10.dtd">
<svg version="1.0" xmlns="http://www.w3.org/2000/svg"
 width="512.000000pt" height="512.000000pt" viewBox="0 0 512.000000 512.000000"
 preserveAspectRatio="xMidYMid meet">

<g transform="translate(0.000000,512.000000) scale(0.100000,-0.100000)"
fill="#000000" stroke="none">
<path d="M1055 4786 c-67 -29 -105 -106 -91 -181 9 -47 59 -102 104 -115 26
-8 497 -10 1514 -8 1473 3 1477 3 1504 24 53 39 69 71 69 134 0 63 -16 95 -69
134 -27 21 -30 21 -1514 23 -1221 2 -1492 0 -1517 -11z"/>
<path d="M735 4146 c-67 -29 -105 -106 -91 -181 9 -47 59 -102 104 -115 26 -8
593 -10 1834 -8 l1797 3 27 21 c53 39 69 71 69 134 0 63 -16 95 -69 134 l-27
21 -1807 2 c-1487 2 -1812 0 -1837 -11z"/>
<path d="M681 3504 c-169 -45 -301 -180 -346 -351 -23 -87 -22 -2380 0 -2468
45 -172 179 -305 352 -350 86 -23 3660 -23 3746 0 173 45 307 178 352 350 13
52 15 211 15 1235 0 1024 -2 1183 -15 1235 -45 172 -179 305 -352 350 -85 22
-3669 21 -3752 -1z m3725 -330 c15 -11 37 -33 48 -48 21 -27 21 -31 21 -1206
0 -1175 0 -1179 -21 -1206 -11 -15 -33 -37 -48 -48 l-27 -21 -1819 0 -1819 0
-27 21 c-15 11 -37 33 -48 48 -21 27 -21 34 -24 1179 -1 634 0 1166 3 1184 7
40 49 91 90 109 25 11 350 13 1837 11 l1807 -2 27 -21z"/>
<path d="M1855 2704 c-46 -24 -74 -54 -86 -93 -6 -24 -9 -267 -7 -713 3 -665
3 -677 24 -704 33 -45 70 -67 121 -71 47 -5 67 4 703 322 360 180 668 336 684
348 41 29 70 99 62 151 -14 86 -4 80 -727 441 -708 355 -707 354 -774 319z
m975 -784 c0 -3 -169 -89 -375 -193 l-375 -187 0 380 0 380 375 -187 c206
-104 375 -190 375 -193z"/>
</g>
</svg>
