<?xml version="1.0" standalone="no"?>
<!DOCTYPE svg PUBLIC "-//W3C//DTD SVG 20010904//EN"
 "http://www.w3.org/TR/2001/REC-SVG-20010904/DTD/svg10.dtd">
<svg version="1.0" xmlns="http://www.w3.org/2000/svg"
 width="512.000000pt" height="512.000000pt" viewBox="0 0 512.000000 512.000000"
 preserveAspectRatio="xMidYMid meet">

<g transform="translate(0.000000,512.000000) scale(0.100000,-0.100000)"
fill="#000000" stroke="none">
<path d="M1280 2880 l0 -1600 1600 0 1600 0 0 1600 0 1600 -1600 0 -1600 0 0
-1600z m2880 0 l0 -1280 -78 0 -79 0 -6 99 c-29 438 -314 814 -727 959 -241
84 -546 83 -789 -4 -303 -108 -547 -352 -655 -655 -38 -105 -66 -252 -66 -341
l0 -58 -80 0 -80 0 0 1280 0 1280 1280 0 1280 0 0 -1280z m-1055 -504 c33 -9
103 -37 155 -63 81 -39 109 -60 191 -142 82 -82 103 -110 142 -191 55 -112 76
-185 84 -297 l6 -83 -803 0 -803 0 6 83 c8 112 29 185 84 297 40 82 60 109
142 190 123 123 229 181 391 215 86 19 322 13 405 -9z"/>
<path d="M2761 3824 c-253 -68 -410 -331 -346 -579 67 -256 329 -415 580 -350
256 67 415 329 350 578 -67 259 -333 419 -584 351z m182 -318 c103 -43 128
-177 48 -257 -112 -113 -296 -12 -267 146 18 94 128 150 219 111z"/>
<path d="M640 2240 l0 -1600 1600 0 1600 0 0 160 0 160 -1440 0 -1440 0 0
1440 0 1440 -160 0 -160 0 0 -1600z"/>
</g>
</svg>
