<?xml version="1.0" standalone="no"?>
<!DOCTYPE svg PUBLIC "-//W3C//DTD SVG 20010904//EN"
 "http://www.w3.org/TR/2001/REC-SVG-20010904/DTD/svg10.dtd">
<svg version="1.0" xmlns="http://www.w3.org/2000/svg"
 width="512.000000pt" height="512.000000pt" viewBox="0 0 512.000000 512.000000"
 preserveAspectRatio="xMidYMid meet">

<g transform="translate(0.000000,512.000000) scale(0.100000,-0.100000)"
fill="#000000" stroke="none">
<path d="M2380 4954 c-325 -31 -607 -109 -880 -245 -488 -243 -852 -608 -1091
-1094 -256 -522 -314 -1094 -168 -1662 40 -156 88 -283 174 -458 345 -704
1009 -1186 1808 -1311 155 -25 507 -25 668 -1 527 79 994 312 1364 682 190
189 330 385 454 635 235 474 307 1004 205 1520 -29 152 -78 316 -103 350 -65
90 -183 94 -254 10 -44 -51 -44 -88 -4 -229 182 -630 71 -1272 -313 -1813 -78
-110 -253 -295 -364 -385 -307 -247 -678 -405 -1066 -453 -122 -15 -407 -12
-528 5 -857 122 -1546 747 -1741 1582 -53 229 -68 534 -36 762 118 838 731
1520 1552 1726 361 91 728 84 1094 -22 141 -40 178 -40 229 4 85 71 80 188
-11 255 -57 42 -372 116 -583 137 -100 10 -321 12 -406 5z"/>
<path d="M4055 4870 c-256 -51 -448 -276 -449 -527 -1 -88 10 -114 68 -157 39
-29 133 -29 172 0 47 35 65 68 74 136 10 84 32 129 86 177 99 87 224 82 319
-14 78 -77 95 -166 51 -260 -24 -53 -80 -109 -125 -127 -14 -5 -55 -14 -90
-18 -67 -9 -100 -27 -135 -74 -19 -25 -21 -41 -21 -206 0 -196 2 -205 69 -254
39 -29 133 -29 172 0 55 41 69 70 72 154 l4 79 84 41 c138 67 237 182 290 340
14 40 19 84 19 160 0 115 -14 170 -69 274 -104 200 -364 321 -591 276z"/>
<path d="M2438 3990 c-340 -58 -599 -310 -664 -648 -42 -221 23 -477 164 -642
17 -21 32 -42 32 -47 0 -4 -33 -28 -72 -53 -153 -96 -320 -284 -407 -456 -83
-167 -137 -388 -129 -536 4 -72 20 -104 72 -142 39 -29 133 -29 172 0 56 41
67 66 75 176 16 198 77 361 189 502 113 142 255 240 432 297 109 35 152 70
164 134 16 85 -22 147 -119 197 -121 61 -217 180 -252 313 -84 323 204 639
535 588 278 -43 464 -320 395 -588 -35 -133 -131 -252 -252 -313 -97 -50 -135
-112 -119 -197 12 -60 58 -102 139 -126 190 -56 339 -156 459 -307 110 -139
170 -299 187 -500 9 -110 19 -135 75 -176 39 -29 133 -29 172 0 48 35 67 70
72 129 6 74 -15 231 -44 335 -34 116 -121 291 -193 387 -76 102 -207 225 -299
283 -39 25 -72 49 -72 53 0 5 15 26 33 47 78 92 136 220 163 358 59 309 -82
636 -353 813 -157 102 -375 149 -555 119z"/>
<path d="M4095 3426 c-42 -18 -83 -69 -91 -111 -12 -64 0 -172 22 -202 39 -52
71 -68 134 -68 63 0 95 16 134 69 18 23 21 42 21 126 0 106 -9 130 -67 173
-33 25 -113 32 -153 13z"/>
</g>
</svg>
