<?xml version="1.0" standalone="no"?>
<!DOCTYPE svg PUBLIC "-//W3C//DTD SVG 20010904//EN"
 "http://www.w3.org/TR/2001/REC-SVG-20010904/DTD/svg10.dtd">
<svg version="1.0" xmlns="http://www.w3.org/2000/svg"
 width="512.000000pt" height="512.000000pt" viewBox="0 0 512.000000 512.000000"
 preserveAspectRatio="xMidYMid meet">

<g transform="translate(0.000000,512.000000) scale(0.100000,-0.100000)"
fill="#000000" stroke="none">
<path d="M713 4870 c-318 -32 -593 -267 -685 -587 l-23 -78 0 -1215 0 -1215
23 -78 c77 -266 263 -462 527 -554 l80 -28 570 -3 571 -3 34 23 c103 70 95
216 -15 277 -26 14 -93 17 -570 21 -538 5 -540 5 -598 28 -126 51 -231 160
-280 289 l-22 58 -3 1150 c-2 828 0 1167 8 1210 38 201 205 358 410 385 101
13 3539 13 3640 0 205 -27 372 -184 410 -385 8 -43 10 -382 8 -1210 l-3 -1150
-22 -58 c-49 -129 -154 -238 -280 -289 -58 -23 -62 -23 -568 -28 -492 -5 -511
-6 -545 -26 -105 -61 -109 -212 -8 -274 32 -20 47 -20 573 -18 l540 3 87 31
c259 92 444 289 520 551 l23 78 0 1215 0 1215 -23 78 c-82 286 -287 487 -581
570 l-76 22 -1820 1 c-1001 1 -1857 -2 -1902 -6z"/>
<path d="M2495 3441 c-31 -14 -129 -121 -445 -484 -222 -257 -410 -477 -417
-489 -7 -13 -12 -43 -13 -66 0 -87 53 -150 135 -159 89 -11 94 -6 378 320
l262 302 5 -1255 c5 -1197 6 -1256 23 -1285 62 -103 211 -104 272 -3 20 32 20
55 25 1288 l5 1255 261 -300 c144 -165 273 -306 288 -313 67 -30 160 -5 202
57 27 40 33 119 11 159 -7 12 -196 234 -420 491 -336 386 -415 472 -448 485
-51 20 -75 20 -124 -3z"/>
</g>
</svg>
